<mxfile host="Electron" modified="2022-09-22T19:19:59.321Z" agent="5.0 (Windows NT 10.0; Win64; x64) AppleWebKit/537.36 (KHTML, like Gecko) draw.io/13.9.9 Chrome/85.0.4183.121 Electron/10.1.5 Safari/537.36" etag="ZOY1fRf47rKjcoT2t6_k" compressed="false" version="13.9.9" type="device">
  <diagram id="dcpkzueD6plIOBDOrCfn" name="Page-1">
    <mxGraphModel dx="865" dy="506" grid="0" gridSize="10" guides="1" tooltips="1" connect="1" arrows="1" fold="1" page="0" pageScale="1" pageWidth="827" pageHeight="1169" math="0" shadow="0">
      <root>
        <mxCell id="0" />
        <mxCell id="1" parent="0" />
        <mxCell id="bsPAmrmh3nxi0miXLobk-1" value="" style="verticalAlign=top;verticalLabelPosition=bottom;labelPosition=center;align=center;html=1;outlineConnect=0;gradientDirection=north;strokeWidth=2;shape=mxgraph.networks.server;fillColor=#eeeeee;strokeColor=#36393d;" vertex="1" parent="1">
          <mxGeometry x="545" y="372" width="80" height="80" as="geometry" />
        </mxCell>
        <mxCell id="bsPAmrmh3nxi0miXLobk-19" style="edgeStyle=orthogonalEdgeStyle;rounded=0;orthogonalLoop=1;jettySize=auto;html=1;startArrow=none;startFill=0;endArrow=classic;endFill=1;strokeColor=#999999;fontColor=#000000;" edge="1" parent="1">
          <mxGeometry relative="1" as="geometry">
            <mxPoint x="310" y="270" as="sourcePoint" />
            <mxPoint x="400" y="250" as="targetPoint" />
            <Array as="points">
              <mxPoint x="400" y="270" />
              <mxPoint x="400" y="250" />
            </Array>
          </mxGeometry>
        </mxCell>
        <mxCell id="bsPAmrmh3nxi0miXLobk-2" value="" style="verticalAlign=top;verticalLabelPosition=bottom;labelPosition=center;align=center;html=1;outlineConnect=0;gradientDirection=north;strokeWidth=2;shape=mxgraph.networks.pc;fillColor=#eeeeee;strokeColor=#36393d;" vertex="1" parent="1">
          <mxGeometry x="200" y="235" width="100" height="70" as="geometry" />
        </mxCell>
        <mxCell id="bsPAmrmh3nxi0miXLobk-20" style="edgeStyle=orthogonalEdgeStyle;orthogonalLoop=1;jettySize=auto;html=1;startArrow=none;startFill=0;endArrow=classic;endFill=1;strokeColor=#999999;fontColor=#000000;rounded=0;" edge="1" parent="1">
          <mxGeometry relative="1" as="geometry">
            <mxPoint x="469" y="250" as="sourcePoint" />
            <mxPoint x="560" y="270" as="targetPoint" />
            <Array as="points">
              <mxPoint x="469" y="270" />
            </Array>
          </mxGeometry>
        </mxCell>
        <mxCell id="bsPAmrmh3nxi0miXLobk-3" value="&lt;font color=&quot;#000000&quot; style=&quot;font-size: 14px&quot;&gt;&lt;br&gt;Internet&lt;/font&gt;" style="html=1;outlineConnect=0;gradientDirection=north;strokeWidth=2;shape=mxgraph.networks.cloud;fillColor=#eeeeee;strokeColor=#36393d;" vertex="1" parent="1">
          <mxGeometry x="390" y="190" width="90" height="50" as="geometry" />
        </mxCell>
        <mxCell id="bsPAmrmh3nxi0miXLobk-12" style="edgeStyle=orthogonalEdgeStyle;rounded=0;orthogonalLoop=1;jettySize=auto;html=1;fillColor=#eeeeee;strokeColor=#999999;" edge="1" parent="1">
          <mxGeometry relative="1" as="geometry">
            <mxPoint x="250" y="360" as="sourcePoint" />
            <mxPoint x="250" y="320" as="targetPoint" />
          </mxGeometry>
        </mxCell>
        <mxCell id="bsPAmrmh3nxi0miXLobk-9" value="" style="shape=mxgraph.signs.sports.cycling;html=1;pointerEvents=1;fillColor=#eeeeee;verticalLabelPosition=bottom;verticalAlign=top;align=center;strokeWidth=2;" vertex="1" parent="1">
          <mxGeometry x="201" y="370" width="98" height="84" as="geometry" />
        </mxCell>
        <mxCell id="bsPAmrmh3nxi0miXLobk-13" style="edgeStyle=orthogonalEdgeStyle;rounded=0;orthogonalLoop=1;jettySize=auto;html=1;fillColor=#eeeeee;strokeColor=#999999;startArrow=classic;startFill=1;endArrow=none;endFill=0;" edge="1" parent="1">
          <mxGeometry relative="1" as="geometry">
            <mxPoint x="270" y="360" as="sourcePoint" />
            <mxPoint x="270" y="320" as="targetPoint" />
            <Array as="points">
              <mxPoint x="270" y="330" />
              <mxPoint x="270" y="330" />
            </Array>
          </mxGeometry>
        </mxCell>
        <mxCell id="bsPAmrmh3nxi0miXLobk-14" value="&lt;font style=&quot;font-size: 14px&quot;&gt;BLE / ANT+&lt;/font&gt;" style="text;html=1;align=center;verticalAlign=middle;resizable=0;points=[];autosize=1;" vertex="1" parent="1">
          <mxGeometry x="281" y="331" width="84" height="18" as="geometry" />
        </mxCell>
        <mxCell id="bsPAmrmh3nxi0miXLobk-17" value="&lt;font style=&quot;font-size: 14px&quot;&gt;Training Platform&lt;/font&gt;" style="text;html=1;align=center;verticalAlign=middle;resizable=0;points=[];autosize=1;fontColor=#000000;" vertex="1" parent="1">
          <mxGeometry x="192" y="461" width="116" height="18" as="geometry" />
        </mxCell>
        <mxCell id="bsPAmrmh3nxi0miXLobk-18" value="&lt;font style=&quot;font-size: 14px&quot;&gt;Zwift Application&lt;/font&gt;" style="text;html=1;align=center;verticalAlign=middle;resizable=0;points=[];autosize=1;fontColor=#000000;" vertex="1" parent="1">
          <mxGeometry x="195" y="201" width="111" height="18" as="geometry" />
        </mxCell>
        <mxCell id="bsPAmrmh3nxi0miXLobk-21" value="" style="rounded=0;whiteSpace=wrap;html=1;strokeColor=#36393d;strokeWidth=2;fillColor=#eeeeee;" vertex="1" parent="1">
          <mxGeometry x="570" y="228" width="30" height="84" as="geometry" />
        </mxCell>
        <mxCell id="bsPAmrmh3nxi0miXLobk-24" value="&lt;font style=&quot;font-size: 14px&quot;&gt;API&lt;/font&gt;" style="text;html=1;align=center;verticalAlign=middle;resizable=0;points=[];autosize=1;fontColor=#000000;" vertex="1" parent="1">
          <mxGeometry x="569" y="261" width="32" height="18" as="geometry" />
        </mxCell>
        <mxCell id="bsPAmrmh3nxi0miXLobk-25" value="&lt;font style=&quot;font-size: 14px&quot;&gt;Zwift Server&lt;/font&gt;" style="text;html=1;align=center;verticalAlign=middle;resizable=0;points=[];autosize=1;fontColor=#000000;" vertex="1" parent="1">
          <mxGeometry x="543" y="461" width="84" height="18" as="geometry" />
        </mxCell>
        <mxCell id="bsPAmrmh3nxi0miXLobk-26" style="edgeStyle=orthogonalEdgeStyle;orthogonalLoop=1;jettySize=auto;html=1;startArrow=classic;startFill=1;endArrow=none;endFill=0;strokeColor=#999999;fontColor=#000000;rounded=0;" edge="1" parent="1">
          <mxGeometry relative="1" as="geometry">
            <mxPoint x="450" y="250" as="sourcePoint" />
            <mxPoint x="558" y="287.5" as="targetPoint" />
            <Array as="points">
              <mxPoint x="450" y="250" />
              <mxPoint x="450" y="288" />
            </Array>
          </mxGeometry>
        </mxCell>
        <mxCell id="bsPAmrmh3nxi0miXLobk-27" style="edgeStyle=orthogonalEdgeStyle;rounded=0;orthogonalLoop=1;jettySize=auto;html=1;startArrow=classic;startFill=1;endArrow=none;endFill=0;strokeColor=#999999;fontColor=#000000;" edge="1" parent="1">
          <mxGeometry relative="1" as="geometry">
            <mxPoint x="308" y="287.48" as="sourcePoint" />
            <mxPoint x="420" y="250" as="targetPoint" />
            <Array as="points">
              <mxPoint x="319" y="288" />
              <mxPoint x="420" y="287" />
            </Array>
          </mxGeometry>
        </mxCell>
        <mxCell id="bsPAmrmh3nxi0miXLobk-36" value="" style="group" vertex="1" connectable="0" parent="1">
          <mxGeometry x="575" y="320" width="20" height="40.000000000000114" as="geometry" />
        </mxCell>
        <mxCell id="bsPAmrmh3nxi0miXLobk-34" style="edgeStyle=orthogonalEdgeStyle;rounded=0;orthogonalLoop=1;jettySize=auto;html=1;fillColor=#eeeeee;strokeColor=#999999;" edge="1" parent="bsPAmrmh3nxi0miXLobk-36">
          <mxGeometry relative="1" as="geometry">
            <mxPoint y="40.000000000000114" as="sourcePoint" />
            <mxPoint as="targetPoint" />
          </mxGeometry>
        </mxCell>
        <mxCell id="bsPAmrmh3nxi0miXLobk-35" style="edgeStyle=orthogonalEdgeStyle;rounded=0;orthogonalLoop=1;jettySize=auto;html=1;fillColor=#eeeeee;strokeColor=#999999;startArrow=classic;startFill=1;endArrow=none;endFill=0;" edge="1" parent="bsPAmrmh3nxi0miXLobk-36">
          <mxGeometry relative="1" as="geometry">
            <mxPoint x="20" y="40.000000000000114" as="sourcePoint" />
            <mxPoint x="20" as="targetPoint" />
            <Array as="points">
              <mxPoint x="20" y="10" />
              <mxPoint x="20" y="10" />
            </Array>
          </mxGeometry>
        </mxCell>
      </root>
    </mxGraphModel>
  </diagram>
</mxfile>
